<?xml version="1.0" standalone="no"?>
<!DOCTYPE svg PUBLIC "-//W3C//DTD SVG 20010904//EN"
 "http://www.w3.org/TR/2001/REC-SVG-20010904/DTD/svg10.dtd">
<svg version="1.0" xmlns="http://www.w3.org/2000/svg"
 width="1080.000000pt" height="1080.000000pt" viewBox="0 0 1080.000000 1080.000000"
 preserveAspectRatio="xMidYMid meet">
<metadata>
Created by potrace 1.16, written by Peter Selinger 2001-2019
</metadata>
<g transform="translate(0.000000,1080.000000) scale(0.100000,-0.100000)"
fill="#000000" stroke="none">
<path d="M2 5403 l3 -5398 5395 0 5395 0 3 5398 2 5397 -5400 0 -5400 0 2
-5397z m5461 4380 c-7 -2 -19 -2 -25 0 -7 3 -2 5 12 5 14 0 19 -2 13 -5z m-95
-10 c-10 -2 -26 -2 -35 0 -10 3 -2 5 17 5 19 0 27 -2 18 -5z m35 -20 c-7 -2
-21 -2 -30 0 -10 3 -4 5 12 5 17 0 24 -2 18 -5z m294 1 c-3 -3 -12 -4 -19 -1
-8 3 -5 6 6 6 11 1 17 -2 13 -5z m-394 -11 c-7 -2 -21 -2 -30 0 -10 3 -4 5 12
5 17 0 24 -2 18 -5z m-66 -9 c-3 -3 -12 -4 -19 -1 -8 3 -5 6 6 6 11 1 17 -2
13 -5z m-127 -39 c-14 -8 -29 -14 -35 -14 -5 0 1 6 15 14 14 8 30 14 35 14 6
0 -1 -6 -15 -14z m820 -45 c3 -3 22 -14 43 -25 21 -11 41 -24 44 -28 3 -5 -4
-4 -16 2 -11 7 -21 9 -21 6 0 -9 -84 50 -101 71 -12 15 -11 15 16 -2 17 -10
32 -21 35 -24z m-925 -23 c-27 -23 -60 -53 -72 -66 -13 -13 -23 -18 -23 -11 0
14 51 64 100 96 52 34 51 29 -5 -19z m1235 -170 c13 -10 20 -17 14 -17 -6 0
-26 15 -45 33 -20 17 -26 25 -15 16 12 -9 32 -23 46 -32z m76 -69 c23 -26 24
-29 4 -13 -40 33 -52 45 -43 45 5 0 22 -15 39 -32z m-1540 7 c39 0 41 -1 31
-22 -14 -31 -28 -33 -73 -12 -21 10 -43 19 -49 19 -5 0 -19 8 -30 16 -19 14
-16 15 30 7 28 -4 69 -8 91 -8z m-153 -2 c-7 -2 -19 -2 -25 0 -7 3 -2 5 12 5
14 0 19 -2 13 -5z m-99 -28 c-10 -8 -24 -15 -30 -15 -7 0 -14 -7 -18 -15 -3
-8 -15 -15 -26 -15 -12 0 -19 -4 -15 -9 8 -14 -15 -25 -27 -13 -13 13 29 42
51 35 9 -4 12 -2 8 2 -4 5 7 17 25 27 40 21 59 23 32 3z m1877 -52 c13 -16 12
-17 -3 -4 -10 7 -18 15 -18 17 0 8 8 3 21 -13z m-1991 -28 c0 -2 -16 -19 -35
-38 -54 -54 -82 -57 -54 -6 6 12 17 18 25 15 8 -3 17 1 20 9 4 8 11 12 17 8 6
-4 8 0 4 10 -4 11 -2 14 9 10 7 -3 14 -6 14 -8z m-81 -92 c10 9 11 8 6 -5 -4
-10 -11 -18 -15 -18 -4 0 -10 -10 -14 -23 -3 -13 -17 -40 -31 -61 -14 -20 -34
-69 -44 -109 -11 -42 -20 -61 -20 -45 -1 15 3 37 8 50 5 13 17 48 26 78 22 73
38 110 49 110 4 0 5 7 2 16 -5 13 -4 14 7 6 10 -9 17 -8 26 1z m2252 -20 c13
-16 12 -17 -3 -4 -10 7 -18 15 -18 17 0 8 8 3 21 -13z m-402 -62 c65 -19 140
-70 223 -153 134 -134 165 -228 154 -464 -9 -183 1 -241 73 -421 l60 -148 -4
-335 c-2 -184 -6 -365 -8 -402 -3 -38 -2 -68 2 -68 4 0 14 26 21 58 7 31 17
72 22 91 6 19 12 91 14 160 5 148 11 182 44 237 23 40 26 41 65 36 22 -3 50
-11 61 -19 58 -37 52 -229 -11 -349 -9 -19 -15 -23 -15 -12 0 9 4 19 9 22 14
9 34 152 29 207 -6 59 -24 79 -71 79 -28 0 -29 -2 -22 -32 4 -18 9 -74 12
-125 4 -89 -4 -134 -54 -305 -3 -10 0 -18 6 -18 11 0 15 8 46 84 25 63 29 33
6 -37 -12 -36 -26 -112 -31 -169 -13 -158 -34 -198 -107 -198 -53 0 -59 12
-45 83 9 47 9 67 -2 56 -2 -2 -12 -60 -20 -129 -44 -336 -91 -472 -217 -636
-82 -106 -343 -334 -383 -334 -8 0 -18 -4 -21 -10 -11 -17 -13 -132 -4 -212
18 -170 85 -226 344 -288 72 -17 137 -35 145 -40 12 -7 10 -17 -10 -61 -78
-167 -233 -334 -395 -424 -170 -95 -355 -138 -595 -139 -349 0 -612 95 -830
300 -74 70 -177 211 -164 224 5 4 27 13 49 20 63 20 176 79 222 116 77 63 149
251 141 370 -3 43 -6 51 -34 64 -44 21 -347 333 -394 405 -21 33 -48 72 -59
87 -12 14 -21 32 -21 40 0 7 -6 22 -13 33 -20 29 -77 293 -77 357 -1 24 -7 72
-15 108 -19 88 -19 449 0 650 9 85 20 207 25 270 5 63 14 151 20 195 6 44 11
183 11 310 0 270 2 283 90 440 134 241 304 398 456 421 58 8 161 -9 278 -48
118 -40 218 -40 371 -2 90 22 125 25 209 22 110 -4 145 -17 234 -93 58 -48 92
-47 126 2 14 21 25 46 25 57 0 16 -5 18 -35 13 -28 -5 -41 -1 -63 18 l-27 24
32 13 c38 16 63 16 122 -1z m576 -242 c9 -17 15 -33 13 -35 -3 -2 -12 12 -21
31 -21 43 -13 47 8 4z m-2548 -1 c-3 -8 -6 -5 -6 6 -1 11 2 17 5 13 3 -3 4
-12 1 -19z m2576 -68 c3 -11 1 -18 -4 -14 -5 3 -9 12 -9 20 0 20 7 17 13 -6z
m52 -183 c13 -61 22 -337 11 -326 -5 4 -18 241 -17 286 0 12 -3 24 -8 27 -4 3
-7 17 -6 31 2 13 -3 46 -11 71 -8 26 -14 52 -13 58 2 17 28 -71 44 -147z
m-184 74 c9 -42 3 -91 -11 -91 -7 0 -20 81 -20 130 0 36 20 11 31 -39z m216
-143 c-3 -7 -5 -2 -5 12 0 14 2 19 5 13 2 -7 2 -19 0 -25z m-9 -373 l-1 -40
-8 45 c-4 25 -7 56 -7 70 0 23 1 22 8 -5 4 -16 8 -48 8 -70z m-2685 -35 c1
-37 6 -65 11 -62 5 3 6 -9 3 -28 -4 -18 -7 -49 -8 -69 0 -34 -1 -35 -10 -11
-15 38 -23 280 -9 257 7 -10 12 -49 13 -87z m2654 -282 c-3 -7 -5 -2 -5 12 0
14 2 19 5 13 2 -7 2 -19 0 -25z m-2553 -429 c-8 -195 -15 -196 -55 -3 -23 114
-22 205 2 257 l13 28 23 -56 c23 -54 23 -62 17 -226z m2616 145 c6 -14 10 -42
10 -63 0 -43 -31 -168 -49 -196 -11 -17 -11 -16 -4 10 4 17 8 85 8 153 0 92 3
122 13 122 7 0 17 -12 22 -26z m-253 -901 c-3 -10 -5 -4 -5 12 0 17 2 24 5 18
2 -7 2 -21 0 -30z m-2747 -789 c8 -8 8 -19 -1 -38 -11 -23 -17 -26 -38 -21
-95 24 -592 13 -890 -20 -131 -15 -140 -13 -141 26 0 26 45 37 195 49 77 6
158 12 180 14 97 9 685 0 695 -10z m-62 -100 l22 -6 0 -423 c0 -330 3 -424 13
-428 14 -4 -66 -29 -198 -60 -79 -19 -119 -22 -315 -21 -225 0 -392 14 -440
37 -32 16 -35 41 -49 457 -6 173 -14 336 -17 361 l-5 46 38 6 c226 35 865 56
951 31z m-1028 -113 c0 -15 -10 -20 -47 -25 -27 -4 -61 -9 -78 -12 -47 -9 -17
15 47 37 67 23 78 23 78 0z m5 -131 l0 -74 -85 -13 c-47 -6 -126 -12 -176 -13
-64 0 -95 -4 -103 -13 -18 -23 -2 -27 102 -27 87 0 108 -4 175 -31 42 -16 82
-35 89 -41 17 -14 18 -175 2 -180 -14 -5 -117 14 -242 43 -88 20 -131 19 -110
-2 18 -18 142 -49 228 -59 44 -4 88 -11 98 -15 17 -7 24 -25 9 -25 -4 0 -22
-24 -40 -54 -33 -53 -34 -54 -110 -73 -54 -13 -92 -16 -127 -12 -62 9 -125 0
-125 -16 0 -17 201 -31 229 -16 11 6 24 11 30 11 18 0 -37 -113 -66 -137 -37
-30 -111 -37 -203 -19 -71 13 -100 10 -86 -12 3 -5 33 -15 66 -21 l60 -12 -7
-67 c-5 -37 -8 -209 -7 -382 0 -404 14 -537 139 -1365 19 -128 25 -201 23
-295 -2 -109 0 -125 14 -128 40 -8 33 237 -17 543 l-24 149 41 76 c93 169 259
390 293 390 22 0 178 -172 305 -337 67 -87 148 -192 181 -233 33 -41 72 -95
86 -119 31 -52 39 -36 -115 -256 -325 -465 -607 -745 -900 -892 -209 -105
-337 -54 -453 182 -173 352 -210 824 -124 1550 62 515 173 1229 206 1326 19
53 21 80 19 203 -4 213 -7 200 54 264 29 31 65 76 80 100 55 89 139 122 396
156 63 9 126 17 140 20 53 8 55 6 55 -74z m13 -144 c3 -21 0 -27 -10 -24 -7 3
-30 11 -50 19 -43 15 -48 26 -15 32 51 11 72 3 75 -27z m3841 -116 c44 -22
118 -62 166 -91 78 -45 86 -53 81 -75 -26 -103 -91 -527 -102 -666 -7 -85 -6
-88 15 -88 11 0 21 6 21 13 0 92 92 697 110 727 14 22 251 -161 365 -281 116
-122 524 -646 525 -673 0 -5 -47 -6 -107 -2 -292 17 -2442 76 -2794 76 -421 0
-815 -51 -977 -127 -94 -44 -132 -122 -157 -324 -8 -68 -15 -191 -15 -275 0
-150 0 -151 -28 -190 -35 -48 -188 -285 -217 -337 l-22 -38 -41 63 c-74 113
-398 518 -500 623 -26 28 -71 72 -100 98 -29 27 -52 57 -52 67 0 28 59 101
189 235 147 151 188 199 348 415 190 255 338 398 443 429 67 19 90 37 90 69 0
35 50 84 137 136 148 88 383 177 409 155 8 -6 14 -16 14 -21 0 -23 109 -165
172 -223 205 -190 451 -287 801 -317 359 -31 659 74 892 311 91 92 150 170
207 273 24 43 44 78 46 78 1 0 38 -18 81 -40z m-3845 -290 c20 -7 26 -16 26
-40 0 -35 2 -35 -50 -14 -45 18 -44 17 -28 44 15 23 18 23 52 10z m388 -702
c-16 -24 -40 -52 -52 -63 -13 -11 -1 8 25 43 55 71 70 82 27 20z m-72 -92 c0
-2 -8 -10 -17 -17 -16 -13 -17 -12 -4 4 13 16 21 21 21 13z m-334 -564 c-18
-16 -18 -16 -6 6 6 13 14 21 18 18 3 -4 -2 -14 -12 -24z m974 -411 c-29 -42
-34 -39 -8 4 11 20 23 34 25 31 3 -3 -5 -19 -17 -35z m3406 21 c56 -20 100
-52 133 -97 l21 -30 -25 -19 c-76 -55 -70 -166 10 -166 51 0 78 40 73 108 -5
52 -4 52 24 52 118 0 166 -158 93 -305 -48 -95 -150 -191 -265 -247 -252 -124
-483 -141 -597 -43 -97 83 -73 203 47 235 49 13 70 4 71 -29 1 -43 24 -94 50
-113 49 -37 110 15 95 79 -10 36 -74 97 -116 109 -78 22 -114 193 -62 292 77
147 288 229 448 174z m174 -206 c0 -42 -25 -72 -46 -55 -18 15 -18 18 6 57 25
41 40 41 40 -2z m-506 -345 c19 -21 18 -62 -2 -69 -7 -2 -19 12 -27 33 -22 52
-5 73 29 36z m1491 -81 c8 -13 -4 -50 -16 -50 -13 0 -22 27 -15 45 6 17 22 20
31 5z m-3462 -46 c122 -15 225 -30 229 -33 10 -9 -41 -474 -58 -533 -5 -16
-21 -18 -147 -18 -78 0 -214 7 -302 15 -88 8 -166 15 -172 15 -10 0 -13 50
-13 218 0 121 3 254 7 297 l6 78 114 -6 c63 -3 214 -18 336 -33z m3324 -30
c33 -33 19 -49 -36 -39 -31 5 -41 11 -41 25 0 17 24 39 43 40 4 0 20 -12 34
-26z m306 -84 c79 -30 138 -88 167 -165 45 -120 23 -296 -48 -385 -87 -107
-244 -139 -384 -77 -121 54 -181 144 -179 271 2 107 9 163 26 196 13 25 21 30
54 30 52 0 85 29 109 93 16 42 25 53 48 59 49 12 146 1 207 -22z m-290 -27
c-10 -29 -55 -73 -75 -73 -28 0 -22 14 22 54 44 39 63 46 53 19z m556 -309 c2
-103 -60 -243 -131 -297 -36 -28 -127 -71 -134 -65 -2 3 19 15 47 28 118 56
197 198 200 360 1 85 16 63 18 -26z m-1713 -99 c7 -19 14 -38 14 -43 0 -5 -25
-16 -55 -26 -52 -16 -66 -28 -46 -40 5 -3 30 2 56 10 50 18 60 14 70 -27 6
-25 3 -28 -44 -44 -50 -16 -69 -30 -57 -42 5 -5 59 7 101 24 9 3 17 -9 25 -37
6 -23 10 -43 8 -44 -7 -6 -192 -75 -194 -73 -5 6 -54 330 -50 334 4 4 125 38
149 42 4 0 15 -15 23 -34z m-453 -142 c13 -34 15 -35 16 -13 2 45 12 51 72 42
38 -6 53 -12 51 -22 -2 -8 -12 -64 -23 -125 -25 -135 -39 -195 -48 -195 -7 0
-145 231 -155 260 -6 14 49 90 64 90 4 0 14 -17 23 -37z m-181 -92 c26 -17 55
-45 65 -63 24 -46 24 -151 -1 -205 l-18 -42 -74 -6 c-62 -6 -78 -4 -106 12
-42 25 -78 87 -78 137 0 51 33 120 71 147 16 11 29 27 29 35 0 25 62 16 112
-15z m-611 -73 c18 -68 49 -221 49 -245 0 -26 22 -30 78 -14 18 6 64 13 101
17 l68 6 12 -62 c7 -34 10 -64 7 -67 -3 -3 -89 -20 -192 -38 -130 -23 -187
-29 -189 -21 -24 70 -85 385 -85 438 0 14 12 18 63 21 34 2 65 4 69 5 4 1 12
-17 19 -40z m466 -274 c24 -10 43 -22 43 -26 0 -10 -27 -10 -32 0 -1 4 -19 18
-38 31 -38 25 -36 24 27 -5z m-3436 -46 c75 -34 134 -89 155 -143 20 -55 11
-102 -43 -209 -73 -148 -93 -161 -275 -191 l-37 -6 6 64 c13 140 -47 364 -82
308 -3 -6 4 -37 15 -71 25 -73 37 -232 21 -272 -10 -26 -15 -28 -63 -28 -81 1
-207 26 -230 47 -24 21 -94 168 -103 216 -12 60 64 226 120 263 41 27 227 54
350 51 93 -3 118 -7 166 -29z m1054 -19 c2 -3 5 -184 6 -404 1 -220 6 -408 11
-417 6 -12 20 -18 44 -18 43 0 41 -17 -5 -44 -40 -23 24 -23 -1151 -12 -753 7
-1021 6 -1265 -5 -401 -17 -409 -17 -443 8 -25 19 -27 26 -26 84 1 55 9 82 59
194 62 140 116 240 203 375 66 104 95 136 147 162 38 20 54 20 365 18 419 -4
381 -2 374 -20 -48 -111 -51 -138 -40 -335 9 -149 20 -195 58 -234 45 -46 92
-54 250 -47 215 10 427 44 497 81 61 31 131 147 131 217 0 20 -16 87 -35 148
-19 61 -35 117 -35 124 0 7 -13 33 -30 59 -16 26 -29 47 -27 48 1 0 70 7 152
14 135 12 748 15 760 4z m5519 -691 c14 -23 -12 -51 -69 -73 -30 -11 -45 -23
-45 -35 0 -15 7 -17 43 -13 36 4 45 2 51 -12 8 -23 -17 -51 -60 -67 -22 -8
-34 -19 -34 -30 0 -21 1 -21 51 -7 30 10 42 9 54 -1 29 -24 13 -53 -45 -82
-65 -33 -90 -35 -121 -9 -23 18 -24 25 -24 145 0 111 3 128 21 153 35 47 155
68 178 31z m296 7 c36 -18 57 -82 43 -129 -7 -26 -14 -31 -38 -31 -25 0 -30 5
-36 33 -9 46 -18 51 -40 23 -15 -18 -19 -39 -19 -91 0 -82 11 -96 65 -81 48
13 67 5 63 -27 -4 -37 -50 -67 -100 -66 -33 1 -48 8 -69 32 -49 54 -59 124
-33 212 20 67 40 98 79 121 36 23 48 23 85 4z m-1705 -25 c0 -19 -9 -29 -37
-43 l-38 -19 0 -111 c0 -131 -5 -154 -33 -163 -37 -12 -47 19 -47 147 l0 117
-36 6 c-19 4 -38 14 -41 22 -14 38 71 75 167 71 62 -2 65 -3 65 -27z m175 0
c39 -41 57 -147 39 -223 -35 -147 -181 -158 -219 -16 -24 88 7 215 62 253 37
26 86 20 118 -14z m258 5 c80 -67 64 -294 -23 -333 -90 -41 -157 29 -157 163
0 153 94 242 180 170z m193 9 c9 -8 30 -52 46 -97 l28 -82 6 80 c6 96 14 117
43 113 30 -4 45 -56 45 -158 0 -93 -22 -176 -51 -194 -28 -17 -69 22 -99 93
l-26 62 -7 -62 c-7 -67 -18 -89 -47 -89 -42 0 -58 103 -35 229 20 110 52 146
97 105z m342 -53 l33 -70 28 59 c42 93 90 102 118 23 19 -54 18 -274 -1 -297
-21 -26 -39 -2 -52 69 -22 117 -20 115 -35 52 -36 -152 -72 -154 -114 -6 l-19
64 -1 -55 c-2 -75 -20 -125 -45 -125 -14 0 -23 11 -31 40 -34 113 12 315 72
315 7 0 28 -31 47 -69z m979 58 c55 -30 78 -198 39 -286 -32 -69 -103 -93
-156 -51 -38 30 -55 76 -55 150 0 84 14 131 51 168 33 32 81 40 121 19z m201
-6 c8 -10 25 -40 37 -68 l22 -50 20 45 c43 100 88 116 120 43 18 -40 22 -68
22 -163 1 -76 -3 -123 -12 -137 -27 -49 -47 -19 -65 99 l-13 83 -13 -60 c-16
-73 -40 -125 -58 -125 -17 0 -33 33 -53 105 l-17 59 -7 -54 c-14 -109 -35
-142 -67 -104 -18 22 -24 167 -10 236 12 58 42 108 65 108 7 0 20 -8 29 -17z
m-652 -283 c23 -13 25 -33 4 -50 -21 -17 -65 2 -65 29 0 28 28 38 61 21z"/>
<path d="M4718 9383 c7 -3 16 -2 19 1 4 3 -2 6 -13 5 -11 0 -14 -3 -6 -6z"/>
<path d="M4326 9235 c-3 -8 -1 -15 4 -15 6 0 10 7 10 15 0 8 -2 15 -4 15 -2 0
-6 -7 -10 -15z"/>
<path d="M5965 8101 c-181 -31 -224 -44 -278 -79 -71 -47 -114 -167 -72 -202
15 -13 22 -12 280 46 94 21 149 27 255 28 122 1 140 -1 190 -23 30 -13 73 -38
95 -56 22 -18 51 -38 64 -45 24 -12 24 -12 19 34 -12 106 -107 235 -212 286
-88 43 -145 45 -341 11z"/>
<path d="M4545 8021 c-46 -20 -104 -92 -155 -189 -27 -53 -31 -68 -25 -104 4
-24 13 -46 19 -50 6 -4 32 13 61 42 44 43 60 51 132 69 45 12 110 21 146 21
54 0 68 -4 93 -25 16 -14 33 -25 39 -25 29 0 -19 -19 -74 -29 -124 -24 -191
-50 -238 -94 -24 -22 -51 -53 -59 -68 -14 -27 -10 -58 7 -60 33 -3 67 -1 86 5
13 4 42 0 69 -9 26 -9 49 -13 52 -11 3 3 -4 9 -14 12 -102 36 -105 46 -34 99
44 32 50 32 50 -6 0 -41 56 -99 97 -99 76 0 103 12 124 51 10 21 19 50 19 64
0 23 3 25 23 20 18 -6 73 -31 141 -63 4 -2 5 5 1 17 -4 13 -2 21 5 21 7 0 5 6
-4 16 -9 8 -16 18 -16 22 0 4 13 -7 29 -24 28 -31 81 -59 67 -35 -4 6 -1 11 7
11 15 0 40 68 30 83 -3 6 -1 7 5 3 19 -11 14 35 -6 74 -19 34 -47 55 -36 27 3
-8 1 -18 -5 -22 -7 -3 -8 0 -5 9 4 11 0 16 -12 16 -12 0 -15 3 -8 8 51 34 40
148 -17 177 -40 21 -103 33 -269 50 -194 20 -275 19 -325 -4z m588 -238 c-7
-2 -19 -2 -25 0 -7 3 -2 5 12 5 14 0 19 -2 13 -5z m-149 -85 c-4 -6 2 -8 16
-3 17 5 21 4 15 -6 -6 -9 -3 -10 11 -5 18 7 18 6 2 -10 -17 -17 -21 -17 -85
-1 -38 9 -88 20 -113 24 l-45 7 45 6 c66 7 161 0 154 -12z m192 -95 c-11 -11
-19 6 -11 24 8 17 8 17 12 0 3 -10 2 -21 -1 -24z m-306 -16 c0 -8 -3 -17 -7
-20 -9 -9 -34 13 -27 24 8 14 34 11 34 -4z"/>
<path d="M5855 7817 c-22 -8 -53 -21 -70 -29 -16 -8 -37 -13 -45 -10 -8 2 -12
1 -8 -3 8 -8 -9 -35 -22 -35 -4 0 -7 10 -6 23 1 23 -24 31 -31 10 -3 -7 3 -13
12 -13 25 0 0 -38 -30 -46 -14 -3 -25 -11 -25 -16 0 -9 22 -7 73 8 9 3 17 0
17 -6 0 -6 19 5 43 24 69 56 121 76 207 76 75 0 171 -19 220 -43 37 -17 98
-67 104 -84 11 -28 -6 -33 -26 -8 -11 14 -25 24 -32 22 -6 -3 -18 2 -26 9 -25
21 -129 44 -201 44 -39 0 -94 -8 -131 -20 -75 -24 -71 -23 -62 -7 7 10 -19 -6
-36 -23 -3 -3 -17 -11 -32 -19 -15 -8 -25 -18 -22 -23 3 -4 -2 -8 -10 -8 -9 0
-16 -9 -16 -20 0 -11 5 -20 10 -20 6 0 10 4 10 8 0 10 115 68 154 78 25 6 26
4 21 -19 -9 -34 28 -105 61 -117 42 -16 89 -11 120 12 35 27 46 43 59 85 l10
33 50 -33 c56 -37 65 -53 36 -62 -12 -3 -21 -11 -21 -16 0 -6 6 -7 13 -2 6 4
20 6 31 4 11 -1 16 2 12 8 -9 14 -3 14 28 0 33 -15 77 -4 73 19 -8 48 -76 133
-132 166 -87 52 -296 81 -380 53z m213 -189 c-7 -19 -38 -22 -38 -4 0 10 9 16
21 16 12 0 19 -5 17 -12z"/>
<path d="M5587 7796 c-9 -23 -8 -24 23 -15 14 4 18 7 8 8 -9 1 -18 6 -20 13
-3 7 -7 5 -11 -6z"/>
<path d="M5580 7748 c0 -22 1 -22 36 -3 18 9 23 15 12 15 -9 0 -20 -5 -24 -11
-4 -8 -9 -7 -15 2 -7 11 -9 10 -9 -3z"/>
<path d="M5789 7577 c5 -5 21 -7 37 -5 27 3 26 4 -8 9 -22 3 -34 1 -29 -4z"/>
<path d="M5068 7553 c7 -3 16 -2 19 1 4 3 -2 6 -13 5 -11 0 -14 -3 -6 -6z"/>
<path d="M5008 7533 c7 -3 16 -2 19 1 4 3 -2 6 -13 5 -11 0 -14 -3 -6 -6z"/>
<path d="M5774 6978 c-1 -54 -6 -76 -23 -98 -23 -32 -13 -50 12 -22 36 40 47
107 25 159 -12 28 -13 26 -14 -39z"/>
<path d="M5006 6944 c-14 -36 -6 -102 16 -129 18 -23 26 -26 60 -22 21 3 36 1
32 -4 -3 -5 0 -9 5 -9 6 0 11 4 11 10 0 13 98 1 132 -17 23 -11 27 -11 22 0
-7 20 -54 52 -95 66 -37 12 -80 4 -94 -18 -12 -20 -43 -11 -65 17 -18 22 -21
36 -17 75 4 50 3 57 -7 31z"/>
<path d="M5589 6842 c-40 -26 -79 -62 -66 -62 2 0 24 7 47 15 23 8 46 12 51 9
5 -3 31 7 56 22 41 24 45 28 28 35 -38 14 -71 9 -116 -19z"/>
<path d="M4710 6725 c-24 -24 -42 -47 -39 -50 3 -2 27 18 54 45 27 28 45 50
39 50 -5 0 -30 -20 -54 -45z"/>
<path d="M5445 6750 c5 -8 -41 -20 -84 -21 l-26 0 25 -10 c17 -7 38 -7 68 2
49 14 60 25 32 32 -11 3 -18 2 -15 -3z"/>
<path d="M5930 6571 c-54 -29 -175 -59 -279 -71 -52 -6 -124 -17 -160 -25 -54
-12 -107 -14 -293 -7 l-227 9 -85 42 c-143 71 -124 39 33 -56 20 -12 91 -33
159 -47 172 -36 333 -36 469 0 54 14 139 36 188 49 50 13 101 27 115 31 21 6
102 57 135 86 17 15 -19 8 -55 -11z m-397 -118 c-7 -2 -19 -2 -25 0 -7 3 -2 5
12 5 14 0 19 -2 13 -5z m-53 -13 c0 -5 -2 -10 -4 -10 -3 0 -8 5 -11 10 -3 6
-1 10 4 10 6 0 11 -4 11 -10z m-42 -7 c-10 -2 -28 -2 -40 0 -13 2 -5 4 17 4
22 1 32 -1 23 -4z"/>
<path d="M5089 6217 c7 -10 45 -27 83 -38 61 -19 87 -21 216 -16 101 3 159 9
187 21 l40 16 -38 -7 c-22 -3 -114 -6 -205 -6 -163 0 -189 3 -277 39 -18 7
-19 6 -6 -9z"/>
<path d="M5136 5641 c10 -10 72 -26 63 -17 -4 4 -21 11 -39 16 -19 5 -29 6
-24 1z"/>
<path d="M3216 5481 c-17 -18 -16 -23 8 -90 44 -121 103 -221 131 -221 21 0
80 75 120 154 55 108 42 180 -30 162 -28 -7 -77 -49 -88 -76 -5 -12 -10 -10
-24 10 -30 42 -71 80 -86 80 -8 0 -22 -9 -31 -19z"/>
<path d="M7130 2905 c-17 -20 -4 -65 18 -65 9 0 23 9 30 21 11 18 11 24 -4 40
-21 23 -28 24 -44 4z"/>
<path d="M7077 2843 c-4 -3 -7 -18 -7 -32 -1 -24 -1 -25 -12 -6 -15 28 -14 28
-37 20 -12 -3 -21 -11 -21 -17 0 -14 60 -88 71 -88 15 0 58 53 59 72 0 17 -28
58 -41 58 -3 0 -9 -3 -12 -7z"/>
<path d="M6933 2805 c-17 -19 -16 -33 2 -51 13 -13 17 -13 37 5 21 20 21 21 3
41 -21 23 -26 24 -42 5z"/>
<path d="M4601 2487 c-37 -10 -46 -18 -53 -42 -13 -50 -21 -307 -10 -336 10
-25 15 -26 197 -49 203 -25 204 -25 206 30 1 45 18 254 25 311 7 66 8 66 -106
80 -137 17 -214 19 -259 6z m143 -54 c-1 -7 -2 -40 -2 -74 -2 -60 -2 -60 -29
-57 -24 3 -29 9 -39 53 -6 28 -14 60 -18 73 -7 22 -6 23 41 20 31 -2 48 -7 47
-15z m-120 -58 c9 -35 16 -68 16 -73 0 -10 -50 -35 -57 -28 -7 7 9 166 17 166
4 0 15 -29 24 -65z m262 52 c9 -9 -67 -137 -81 -137 -23 0 -27 18 -19 86 l7
66 44 -5 c24 -2 46 -7 49 -10z m17 -144 c-8 -49 -9 -51 -27 -37 -19 14 -19 15
5 66 27 57 33 49 22 -29z"/>
<path d="M8250 2116 c-7 -14 -10 -32 -7 -40 7 -19 48 -21 65 -4 17 17 15 48
-3 48 -8 0 -15 5 -15 10 0 19 -27 10 -40 -14z"/>
<path d="M8363 2125 c-14 -15 -18 -75 -5 -75 4 0 16 -14 27 -30 27 -41 45 -37
78 16 32 53 34 80 8 87 -23 6 -41 -10 -41 -34 0 -36 -19 -28 -22 8 -3 41 -24
53 -45 28z"/>
<path d="M8510 2125 c-11 -13 -11 -20 0 -40 15 -29 35 -32 57 -10 23 23 9 65
-21 65 -13 0 -29 -7 -36 -15z"/>
<path d="M6316 1685 c-60 -48 -60 -107 1 -155 25 -20 25 -20 53 0 40 28 56 72
40 110 -7 17 -24 39 -39 49 -26 19 -27 19 -55 -4z"/>
<path d="M8092 568 c-15 -15 -16 -102 -2 -129 25 -46 50 -12 50 68 0 68 -18
91 -48 61z"/>
<path d="M8349 553 c-22 -58 11 -157 41 -127 12 13 19 106 9 132 -11 30 -37
28 -50 -5z"/>
<path d="M9876 565 c-10 -27 -7 -115 5 -136 25 -48 60 50 41 116 -9 33 -36 45
-46 20z"/>
</g>
</svg>
